<svg version="1.1"
      xmlns="http://www.w3.org/2000/svg"
      xmlns:xlink="http://www.w3.org/1999/xlink"  id="snapshot-95389" width="250" height="250" viewBox="0 0 250 250"><desc>This image was made on Patterninja.com</desc><defs>
<!-- image 19484 -->
<g id="transformed-19484" data-image="19484" transform="translate(217.04, 170.59) rotate(46, 16, 17.5)"><g><svg version="1.1" width="32px" height="35px" viewBox="0 0 32 35"><g id="original-19484"><svg xmlns="http://www.w3.org/2000/svg" viewBox="0 0 26 28" xmlns:xlink="http://www.w3.org/1999/xlink" version="1.1" preserveAspectRatio="xMidYMid meet">
  <path d="M26 10.109c0 .281-.203.547-.406.75l-5.672 5.531 1.344 7.812c.016.109.016.203.016.313 0 .406-.187.781-.641.781a1.27 1.27 0 0 1-.625-.187L13 21.422l-7.016 3.687c-.203.109-.406.187-.625.187-.453 0-.656-.375-.656-.781 0-.109.016-.203.031-.313l1.344-7.812L.39 10.859c-.187-.203-.391-.469-.391-.75 0-.469.484-.656.875-.719l7.844-1.141 3.516-7.109c.141-.297.406-.641.766-.641s.625.344.766.641l3.516 7.109 7.844 1.141c.375.063.875.25.875.719z" fill="rgba(238, 238, 238, 1)" stroke="none"/>
</svg>
</g></svg></g></g>
<!-- /image 19484 -->

<!-- image 66927 -->
<g id="transformed-66927" data-image="66927" transform="translate(93.81573046501188, 137.16573046501185) rotate(83, 17.454269534988118, 17.454269534988143)"><g><svg version="1.1" width="34.908539069976236px" height="34.908539069976285px" viewBox="0 0 34.908539069976236 34.908539069976285"><g id="original-66927"><svg xmlns="http://www.w3.org/2000/svg" viewBox="0 0 32 32" xmlns:xlink="http://www.w3.org/1999/xlink" version="1.1" preserveAspectRatio="xMidYMid meet">
  <path d="M24.633 22.184c-8.188 0-14.82-6.637-14.82-14.82 0-2.695.773-5.188 2.031-7.363C5.02 1.969 0 8.188 0 15.645 0 24.676 7.32 32 16.352 32c7.457 0 13.68-5.023 15.648-11.844-2.18 1.254-4.672 2.028-7.367 2.028z" fill="rgba(238, 238, 238, 1)" stroke="none"/>
</svg>
</g></svg></g></g>
<!-- /image 66927 -->

<!-- image 69292 -->
<g id="transformed-69292" data-image="69292" transform="translate(134.76, 5.949999999999999) rotate(348, 17.5, 17.5)"><g><svg version="1.1" width="35px" height="35px" viewBox="0 0 35 35"><g id="original-69292"><svg xmlns="http://www.w3.org/2000/svg" viewBox="0 0 28 28" xmlns:xlink="http://www.w3.org/1999/xlink" version="1.1" preserveAspectRatio="xMidYMid meet">
  <path d="M27.563.172c.328.234.484.609.422 1l-4 24a1.002 1.002 0 0 1-.984.828c-.125 0-.25-.031-.375-.078l-7.078-2.891-3.781 4.609a.971.971 0 0 1-.766.359.894.894 0 0 1-.344-.063.997.997 0 0 1-.656-.938v-5.453l13.5-16.547L6.798 19.451.626 16.92a.99.99 0 0 1-.625-.859 1.01 1.01 0 0 1 .5-.922l26-15a.966.966 0 0 1 .5-.141c.203 0 .406.063.562.172z" fill="rgba(238, 238, 238, 1)" stroke="none"/>
</svg>
</g></svg></g></g>
<!-- /image 69292 -->

<!-- image 21438 -->
<g id="transformed-21438" data-image="21438" transform="translate(19.130000000000003, 48.61) rotate(29, 17.5, 17.5)"><g><svg version="1.1" width="35px" height="35px" viewBox="0 0 35 35"><g id="original-21438"><svg xmlns="http://www.w3.org/2000/svg" viewBox="0 0 1024 1024" xmlns:xlink="http://www.w3.org/1999/xlink" version="1.1" preserveAspectRatio="xMidYMid meet">
  <path d="M539.495 463.505s-35.86-296.042-5.984-370.653C548.77 54.64 596.885-15.03 691.099 2.894c85.55 16.256 74.312 109.46 74.312 109.46s65.306-30.207 128.11 6.652c41.772 24.579 151.944 231.199-82.322 280.741-216.908 45.823-271.704 63.758-271.704 63.758zm0 20.5s272.688-44.258 378.232-9.974c106.168 34.597 137.356 158.806 69.16 235.443C960.106 739.588 879.9 732.86 879.9 732.86s23.893 83.602-22.865 132.384c-46.834 48.767-137.847 57.82-185.188 1.013-79.626-95.573-132.353-361.783-132.353-382.251zm-30.89-22.984s3.304-330.891-125.43-406.024C321.442 18.944 214.468 41.881 168.17 101.28c-32.3 41.502-36.932 92.89-25.856 121.948 0 0-120.668-6.357-140.125 108-20.647 121.427 111.244 156.081 122.186 157.242 73.15 7.994 156.307-18.548 260.792-27.45 59.695-5.12 123.437 0 123.437 0zm12.997 23.996S322.84 469.847 164.57 597.288c-83.632 67.285-78.375 170.106-47.175 231.141 22.926 44.791 82.65 69.682 149.326 61.702 0 0 9.93 115.457 115.441 132.4 72.423 11.61 181.27-50.883 191.17-130.42 17.877-144.323-64.712-341.4-51.73-407.094z" fill="rgba(238, 238, 238, 1)" stroke="none"/>
</svg>
</g></svg></g></g>
<!-- /image 21438 -->
</defs><rect x="0" y="0" width="250" height="250" fill="rgba(254, 254, 254, 1)"></rect><use xlink:href="#transformed-19484" transform="translate(-250, -250)"></use><use xlink:href="#transformed-19484" transform="translate(0, -250)"></use><use xlink:href="#transformed-19484" transform="translate(250, -250)"></use><use xlink:href="#transformed-19484" transform="translate(-250, 0)"></use><use xlink:href="#transformed-19484" transform="translate(0, 0)"></use><use xlink:href="#transformed-19484" transform="translate(250, 0)"></use><use xlink:href="#transformed-19484" transform="translate(-250, 250)"></use><use xlink:href="#transformed-19484" transform="translate(0, 250)"></use><use xlink:href="#transformed-19484" transform="translate(250, 250)"></use><use xlink:href="#transformed-66927" transform="translate(-250, -250)"></use><use xlink:href="#transformed-66927" transform="translate(0, -250)"></use><use xlink:href="#transformed-66927" transform="translate(250, -250)"></use><use xlink:href="#transformed-66927" transform="translate(-250, 0)"></use><use xlink:href="#transformed-66927" transform="translate(0, 0)"></use><use xlink:href="#transformed-66927" transform="translate(250, 0)"></use><use xlink:href="#transformed-66927" transform="translate(-250, 250)"></use><use xlink:href="#transformed-66927" transform="translate(0, 250)"></use><use xlink:href="#transformed-66927" transform="translate(250, 250)"></use><use xlink:href="#transformed-69292" transform="translate(-250, -250)"></use><use xlink:href="#transformed-69292" transform="translate(0, -250)"></use><use xlink:href="#transformed-69292" transform="translate(250, -250)"></use><use xlink:href="#transformed-69292" transform="translate(-250, 0)"></use><use xlink:href="#transformed-69292" transform="translate(0, 0)"></use><use xlink:href="#transformed-69292" transform="translate(250, 0)"></use><use xlink:href="#transformed-69292" transform="translate(-250, 250)"></use><use xlink:href="#transformed-69292" transform="translate(0, 250)"></use><use xlink:href="#transformed-69292" transform="translate(250, 250)"></use><use xlink:href="#transformed-21438" transform="translate(-250, -250)"></use><use xlink:href="#transformed-21438" transform="translate(0, -250)"></use><use xlink:href="#transformed-21438" transform="translate(250, -250)"></use><use xlink:href="#transformed-21438" transform="translate(-250, 0)"></use><use xlink:href="#transformed-21438" transform="translate(0, 0)"></use><use xlink:href="#transformed-21438" transform="translate(250, 0)"></use><use xlink:href="#transformed-21438" transform="translate(-250, 250)"></use><use xlink:href="#transformed-21438" transform="translate(0, 250)"></use><use xlink:href="#transformed-21438" transform="translate(250, 250)"></use></svg>